<svg height="512" viewBox="0 0 128 128" width="512" xmlns="http://www.w3.org/2000/svg"><g id="Circle_Grid" data-name="Circle Grid"><circle cx="64" cy="64" fill="#ea8953" r="64"/></g><g id="icon"><g fill="#eeefee"><path d="m64 106a41.982 41.982 0 0 1 -34.825-18.516l4.666-3.152a36.374 36.374 0 1 0 -6.21-20.332h-5.631a42 42 0 1 1 42 42z"/><path d="m41.758 82.137-15.706 12.289-.533-16.862z"/><path d="m52.06 45.184v8.969c0 6.594 11.94 11.939 11.94 11.939s11.94-5.345 11.94-11.939v-8.969z"/></g><path d="m77.149 42.779h-26.359c-.665 0-1.359.838-1.359 1.871s.694 1.87 1.359 1.87h26.359a1.942 1.942 0 0 0 0-3.741z" fill="#575b6d"/><path d="m52.06 85.221v-8.968c0-6.594 11.94-11.94 11.94-11.94s11.94 5.346 11.94 11.94v8.968z" fill="#eeefee"/><path d="m65.084 69.966v-6.41c3.053-1.666 7.669-4.779 8.8-7.992h-19.768c1.131 3.213 5.747 6.326 8.8 7.992v6.41c-3.5 1.91-9.076 5.719-9.076 9.4v4.963h20.32v-4.96c0-3.684-5.573-7.493-9.076-9.403z" fill="#f6b863"/><path d="m77.149 82.984h-26.359c-.665 0-1.359.837-1.359 1.871s.694 1.87 1.359 1.87h26.359a1.942 1.942 0 0 0 0-3.741z" fill="#575b6d"/></g></svg>